<mxfile host="app.diagrams.net" modified="2021-08-13T03:37:22.245Z" agent="5.0 (Macintosh; Intel Mac OS X 10_15_7) AppleWebKit/605.1.15 (KHTML, like Gecko) Version/14.1.2 Safari/605.1.15" etag="YwawJ5aJU4Ik9DGAHfO3" version="14.9.3" type="github">
  <diagram id="pQ-mQGiehcReT5hZOpBR" name="Page-1">
    <mxGraphModel dx="2000" dy="685" grid="1" gridSize="10" guides="1" tooltips="1" connect="1" arrows="1" fold="1" page="1" pageScale="1" pageWidth="827" pageHeight="1169" math="0" shadow="0">
      <root>
        <mxCell id="0" />
        <mxCell id="1" parent="0" />
        <mxCell id="ooA-Sr7LboeFShkX4qgm-1" value="AWS Cloud" style="points=[[0,0],[0.25,0],[0.5,0],[0.75,0],[1,0],[1,0.25],[1,0.5],[1,0.75],[1,1],[0.75,1],[0.5,1],[0.25,1],[0,1],[0,0.75],[0,0.5],[0,0.25]];outlineConnect=0;gradientColor=none;html=1;whiteSpace=wrap;fontSize=12;fontStyle=0;shape=mxgraph.aws4.group;grIcon=mxgraph.aws4.group_aws_cloud_alt;strokeColor=#232F3E;fillColor=none;verticalAlign=top;align=left;spacingLeft=30;fontColor=#232F3E;dashed=0;" parent="1" vertex="1">
          <mxGeometry x="-200" y="240" width="960" height="680" as="geometry" />
        </mxCell>
        <mxCell id="ooA-Sr7LboeFShkX4qgm-2" value="Region" style="points=[[0,0],[0.25,0],[0.5,0],[0.75,0],[1,0],[1,0.25],[1,0.5],[1,0.75],[1,1],[0.75,1],[0.5,1],[0.25,1],[0,1],[0,0.75],[0,0.5],[0,0.25]];outlineConnect=0;gradientColor=none;html=1;whiteSpace=wrap;fontSize=12;fontStyle=0;shape=mxgraph.aws4.group;grIcon=mxgraph.aws4.group_region;strokeColor=#147EBA;fillColor=none;verticalAlign=top;align=left;spacingLeft=30;fontColor=#147EBA;dashed=1;container=0;" parent="1" vertex="1">
          <mxGeometry x="-120" y="410" width="840" height="470" as="geometry" />
        </mxCell>
        <mxCell id="ooA-Sr7LboeFShkX4qgm-3" value="Active Availability Zone" style="fillColor=none;strokeColor=#147EBA;dashed=1;verticalAlign=top;fontStyle=0;fontColor=#147EBA;" parent="1" vertex="1">
          <mxGeometry x="-40" y="440" width="240" height="400" as="geometry" />
        </mxCell>
        <mxCell id="65IU314qtycd1KhEnbtt-5" value="" style="group" parent="1" vertex="1" connectable="0">
          <mxGeometry x="-420" y="305" width="140" height="105" as="geometry" />
        </mxCell>
        <mxCell id="LTmt9nos-p75ERaRz-Tp-4" value="" style="points=[[0,0,0],[0.25,0,0],[0.5,0,0],[0.75,0,0],[1,0,0],[0,1,0],[0.25,1,0],[0.5,1,0],[0.75,1,0],[1,1,0],[0,0.25,0],[0,0.5,0],[0,0.75,0],[1,0.25,0],[1,0.5,0],[1,0.75,0]];outlineConnect=0;fontColor=#232F3E;gradientColor=#F78E04;gradientDirection=north;fillColor=#D05C17;strokeColor=#ffffff;dashed=0;verticalLabelPosition=bottom;verticalAlign=top;align=center;html=1;fontSize=12;fontStyle=0;aspect=fixed;shape=mxgraph.aws4.resourceIcon;resIcon=mxgraph.aws4.elastic_beanstalk;" parent="65IU314qtycd1KhEnbtt-5" vertex="1">
          <mxGeometry x="40" width="78" height="78" as="geometry" />
        </mxCell>
        <mxCell id="LTmt9nos-p75ERaRz-Tp-37" value="AWS Elastic Beanstalk&amp;nbsp;" style="text;html=1;resizable=0;autosize=1;align=center;verticalAlign=middle;points=[];fillColor=none;strokeColor=none;rounded=0;" parent="65IU314qtycd1KhEnbtt-5" vertex="1">
          <mxGeometry y="85" width="140" height="20" as="geometry" />
        </mxCell>
        <mxCell id="LTmt9nos-p75ERaRz-Tp-5" value="" style="edgeStyle=orthogonalEdgeStyle;rounded=0;orthogonalLoop=1;jettySize=auto;html=1;" parent="1" source="ooA-Sr7LboeFShkX4qgm-8" target="ooA-Sr7LboeFShkX4qgm-11" edge="1">
          <mxGeometry relative="1" as="geometry" />
        </mxCell>
        <mxCell id="LTmt9nos-p75ERaRz-Tp-6" value="" style="edgeStyle=orthogonalEdgeStyle;rounded=0;orthogonalLoop=1;jettySize=auto;html=1;" parent="1" source="ooA-Sr7LboeFShkX4qgm-11" target="ooA-Sr7LboeFShkX4qgm-14" edge="1">
          <mxGeometry relative="1" as="geometry">
            <Array as="points">
              <mxPoint x="279" y="309" />
            </Array>
          </mxGeometry>
        </mxCell>
        <mxCell id="ZLlnHVbcZNc7INUxOHm8-2" value="" style="edgeStyle=orthogonalEdgeStyle;rounded=0;orthogonalLoop=1;jettySize=auto;html=1;" parent="1" source="ooA-Sr7LboeFShkX4qgm-14" edge="1">
          <mxGeometry relative="1" as="geometry">
            <mxPoint x="260" y="470" as="targetPoint" />
          </mxGeometry>
        </mxCell>
        <mxCell id="65IU314qtycd1KhEnbtt-6" value="" style="group" parent="1" vertex="1" connectable="0">
          <mxGeometry x="-430" y="532" width="140" height="105" as="geometry" />
        </mxCell>
        <mxCell id="LTmt9nos-p75ERaRz-Tp-36" value="" style="points=[[0,0,0],[0.25,0,0],[0.5,0,0],[0.75,0,0],[1,0,0],[0,1,0],[0.25,1,0],[0.5,1,0],[0.75,1,0],[1,1,0],[0,0.25,0],[0,0.5,0],[0,0.75,0],[1,0.25,0],[1,0.5,0],[1,0.75,0]];outlineConnect=0;fontColor=#232F3E;gradientColor=#F78E04;gradientDirection=north;fillColor=#D05C17;strokeColor=#ffffff;dashed=0;verticalLabelPosition=bottom;verticalAlign=top;align=center;html=1;fontSize=12;fontStyle=0;aspect=fixed;shape=mxgraph.aws4.resourceIcon;resIcon=mxgraph.aws4.elastic_beanstalk;" parent="65IU314qtycd1KhEnbtt-6" vertex="1">
          <mxGeometry x="30" width="78" height="78" as="geometry" />
        </mxCell>
        <mxCell id="LTmt9nos-p75ERaRz-Tp-107" value="AWS Elastic Beanstalk&amp;nbsp;" style="text;html=1;resizable=0;autosize=1;align=center;verticalAlign=middle;points=[];fillColor=none;strokeColor=none;rounded=0;rotation=0;" parent="65IU314qtycd1KhEnbtt-6" vertex="1">
          <mxGeometry y="85" width="140" height="20" as="geometry" />
        </mxCell>
        <mxCell id="65IU314qtycd1KhEnbtt-13" value="" style="group" parent="1" vertex="1" connectable="0">
          <mxGeometry x="89" y="270" width="210" height="78" as="geometry" />
        </mxCell>
        <mxCell id="ooA-Sr7LboeFShkX4qgm-14" value="" style="points=[[0,0,0],[0.25,0,0],[0.5,0,0],[0.75,0,0],[1,0,0],[0,1,0],[0.25,1,0],[0.5,1,0],[0.75,1,0],[1,1,0],[0,0.25,0],[0,0.5,0],[0,0.75,0],[1,0.25,0],[1,0.5,0],[1,0.75,0]];outlineConnect=0;fontColor=#232F3E;gradientColor=#945DF2;gradientDirection=north;fillColor=#5A30B5;strokeColor=#ffffff;dashed=0;verticalLabelPosition=bottom;verticalAlign=top;align=center;html=1;fontSize=12;fontStyle=0;aspect=fixed;shape=mxgraph.aws4.resourceIcon;resIcon=mxgraph.aws4.cloudfront;" parent="65IU314qtycd1KhEnbtt-13" vertex="1">
          <mxGeometry x="132" width="78" height="78" as="geometry" />
        </mxCell>
        <mxCell id="LTmt9nos-p75ERaRz-Tp-10" value="Amazon CloudFront" style="text;html=1;resizable=0;autosize=1;align=center;verticalAlign=middle;points=[];fillColor=none;strokeColor=none;rounded=0;" parent="65IU314qtycd1KhEnbtt-13" vertex="1">
          <mxGeometry y="29" width="120" height="20" as="geometry" />
        </mxCell>
        <mxCell id="65IU314qtycd1KhEnbtt-14" value="" style="group" parent="1" vertex="1" connectable="0">
          <mxGeometry x="221" y="140" width="144" height="48" as="geometry" />
        </mxCell>
        <mxCell id="ooA-Sr7LboeFShkX4qgm-11" value="" style="outlineConnect=0;fontColor=#232F3E;gradientColor=none;fillColor=#232F3E;strokeColor=none;dashed=0;verticalLabelPosition=bottom;verticalAlign=top;align=center;html=1;fontSize=12;fontStyle=0;aspect=fixed;pointerEvents=1;shape=mxgraph.aws4.internet;" parent="65IU314qtycd1KhEnbtt-14" vertex="1">
          <mxGeometry width="78" height="48" as="geometry" />
        </mxCell>
        <mxCell id="LTmt9nos-p75ERaRz-Tp-11" value="Internet" style="text;html=1;resizable=0;autosize=1;align=center;verticalAlign=middle;points=[];fillColor=none;strokeColor=none;rounded=0;" parent="65IU314qtycd1KhEnbtt-14" vertex="1">
          <mxGeometry x="84" y="20" width="60" height="20" as="geometry" />
        </mxCell>
        <mxCell id="65IU314qtycd1KhEnbtt-18" value="" style="group" parent="1" vertex="1" connectable="0">
          <mxGeometry x="221" y="10" width="174" height="78" as="geometry" />
        </mxCell>
        <object label="" id="ooA-Sr7LboeFShkX4qgm-8">
          <mxCell style="outlineConnect=0;fontColor=#232F3E;gradientColor=none;fillColor=#232F3E;strokeColor=none;dashed=0;verticalLabelPosition=bottom;verticalAlign=top;align=center;html=1;fontSize=12;fontStyle=0;aspect=fixed;pointerEvents=1;shape=mxgraph.aws4.users;" parent="65IU314qtycd1KhEnbtt-18" vertex="1">
            <mxGeometry width="78" height="78" as="geometry" />
          </mxCell>
        </object>
        <mxCell id="LTmt9nos-p75ERaRz-Tp-9" value="Internet Users" style="text;html=1;resizable=0;autosize=1;align=center;verticalAlign=middle;points=[];fillColor=none;strokeColor=none;rounded=0;" parent="65IU314qtycd1KhEnbtt-18" vertex="1">
          <mxGeometry x="84" y="29" width="90" height="20" as="geometry" />
        </mxCell>
        <mxCell id="0O99mEVxy6z-FhVjCe1j-1" value="Availability Zone #n" style="fillColor=none;strokeColor=#147EBA;dashed=1;verticalAlign=top;fontStyle=0;fontColor=#147EBA;" vertex="1" parent="1">
          <mxGeometry x="430" y="470" width="240" height="400" as="geometry" />
        </mxCell>
        <mxCell id="ooA-Sr7LboeFShkX4qgm-4" value="Availability Zone" style="fillColor=none;strokeColor=#147EBA;dashed=1;verticalAlign=top;fontStyle=0;fontColor=#147EBA;" parent="1" vertex="1">
          <mxGeometry x="320" y="440" width="240" height="400" as="geometry" />
        </mxCell>
        <mxCell id="0O99mEVxy6z-FhVjCe1j-2" value="Elastic Beanstalk container" style="points=[[0,0],[0.25,0],[0.5,0],[0.75,0],[1,0],[1,0.25],[1,0.5],[1,0.75],[1,1],[0.75,1],[0.5,1],[0.25,1],[0,1],[0,0.75],[0,0.5],[0,0.25]];outlineConnect=0;gradientColor=none;html=1;whiteSpace=wrap;fontSize=12;fontStyle=0;shape=mxgraph.aws4.group;grIcon=mxgraph.aws4.group_elastic_beanstalk;strokeColor=#D86613;fillColor=none;verticalAlign=top;align=left;spacingLeft=30;fontColor=#D86613;dashed=0;" vertex="1" parent="1">
          <mxGeometry x="-67" y="470" width="750" height="150" as="geometry" />
        </mxCell>
        <mxCell id="0O99mEVxy6z-FhVjCe1j-4" value="Auto Scaling group" style="points=[[0,0],[0.25,0],[0.5,0],[0.75,0],[1,0],[1,0.25],[1,0.5],[1,0.75],[1,1],[0.75,1],[0.5,1],[0.25,1],[0,1],[0,0.75],[0,0.5],[0,0.25]];outlineConnect=0;gradientColor=none;html=1;whiteSpace=wrap;fontSize=12;fontStyle=0;shape=mxgraph.aws4.groupCenter;grIcon=mxgraph.aws4.group_auto_scaling_group;grStroke=1;strokeColor=#D86613;fillColor=none;verticalAlign=top;align=center;fontColor=#D86613;dashed=1;spacingTop=25;" vertex="1" parent="1">
          <mxGeometry x="-55" y="500" width="715" height="110" as="geometry" />
        </mxCell>
        <mxCell id="0O99mEVxy6z-FhVjCe1j-6" value="" style="points=[[0,0,0],[0.25,0,0],[0.5,0,0],[0.75,0,0],[1,0,0],[0,1,0],[0.25,1,0],[0.5,1,0],[0.75,1,0],[1,1,0],[0,0.25,0],[0,0.5,0],[0,0.75,0],[1,0.25,0],[1,0.5,0],[1,0.75,0]];outlineConnect=0;fontColor=#232F3E;gradientColor=#F78E04;gradientDirection=north;fillColor=#D05C17;strokeColor=#ffffff;dashed=0;verticalLabelPosition=bottom;verticalAlign=top;align=center;html=1;fontSize=12;fontStyle=0;aspect=fixed;shape=mxgraph.aws4.resourceIcon;resIcon=mxgraph.aws4.elastic_beanstalk;" vertex="1" parent="1">
          <mxGeometry x="-30" y="510" width="63" height="63" as="geometry" />
        </mxCell>
        <mxCell id="0O99mEVxy6z-FhVjCe1j-7" value="" style="points=[[0,0,0],[0.25,0,0],[0.5,0,0],[0.75,0,0],[1,0,0],[0,1,0],[0.25,1,0],[0.5,1,0],[0.75,1,0],[1,1,0],[0,0.25,0],[0,0.5,0],[0,0.75,0],[1,0.25,0],[1,0.5,0],[1,0.75,0]];outlineConnect=0;fontColor=#232F3E;gradientColor=#F78E04;gradientDirection=north;fillColor=#D05C17;strokeColor=#ffffff;dashed=0;verticalLabelPosition=bottom;verticalAlign=top;align=center;html=1;fontSize=12;fontStyle=0;aspect=fixed;shape=mxgraph.aws4.resourceIcon;resIcon=mxgraph.aws4.elastic_beanstalk;" vertex="1" parent="1">
          <mxGeometry x="120" y="509.5" width="63" height="63" as="geometry" />
        </mxCell>
      </root>
    </mxGraphModel>
  </diagram>
</mxfile>
